<svg xmlns="http://www.w3.org/2000/svg" viewBox="0 0 3102.8 1460"><defs><style>.cls-1,.cls-4,.cls-5{fill:#ededed;}.cls-2{fill:#e2b566;}.cls-3{fill:#aa7d3c;}.cls-4{font-size:144.8px;font-family:Aleo-Bold, Aleo;font-weight:700;letter-spacing:0.07em;}.cls-5{font-size:140.28px;font-family:BarlowCondensed-Medium, Barlow Condensed;font-weight:500;letter-spacing:0.08em;}.cls-6{letter-spacing:0.07em;}.cls-7{letter-spacing:0.06em;}.cls-8{letter-spacing:0.05em;}</style></defs><g id="Layer_2" data-name="Layer 2"><g id="OBJECTS"><path class="cls-1" d="M89.11,966q-3.4-52.83-6.77-105.65,1.92-45.45,3.92-90.92-3.35-27-6.82-54Q78,688.26,76.52,661.09c1.17-6.37,1.76-9.51,2.94-15.69q-3.3-22.51-6.85-45c9.41-4.47,14.11-6.65,23.53-10.87q42.15,3.44,84.3,6.7c-1.47,16.65-2.79,33.32-4.08,50q-2.64,23.73-5,47.48c-4.71,6.38-7.06,9.61-11.77,16.18l10.73,6.84q-2.07,28.44-4,56.88,4.37,43.17,8.58,86.36l1.95-1.13q20.44-9.09,41-18l15.59,3.72c3.52-4.29,5.29-6.42,8.81-10.68q20-9.93,40.09-19.66c7.44-3.81,11.15-5.7,18.59-9.45,4.31-2.1,6.46-3.15,10.77-5.23,1.61-9.37,2.42-14,4-23.24q-1.23-37-2.54-73.94-.74-33.14-1.56-66.28c-1.89-11-2.84-16.26-4.73-26.42,5.93-7.46,8.9-11,14.83-17.92l36.28.42,55.88.89q-1.71,15.12-3.21,30.28-3.27,19.29-6.19,38.64v-.71c-.47,10.76-.71,16.31-1.18,27.65-4,4.05-5.92,6.1-9.86,10.24,3.46,8.64,5.19,13,8.65,21.87q-2.77,38.22-5.39,76.45Q398,816.23,399.32,835c.74,6.68,1.11,10,1.85,16.72q.48,74.35,1,148.72.6,47.43,1.26,94.87c2.67,6.3,4,9.37,6.68,15.33.53,11.07,1.06,22.13,1.65,33.19q-18,4.25-36,8.62-28.21,6-56.38,12.18c-5-7.2-7.49-11-12.48-19,2.66-27.11,5-54.24,7.3-81.38l9.77-8.69c-5.81-4-8.72-6-14.53-10.06q1.38-64.85,2.62-129.69c-1.14-4.72-1.72-7.09-2.86-11.83l1.05-15.82q-28.36,9-56.61,18.3l-1,.12q-38.22,19.61-76,39.91-2.52,76-5.24,152c-.39,1-.58,1.58-1,2.62q2.74,20,5.7,40c.91,10.58,1.82,21.17,2.8,31.75-.42,10.32-.63,15.3-1.05,24.84Q158,1203.31,138.2,1209q-30.4,5.84-60.78,11.82,1.55-24.64,2.91-49.29c6.18-7.32,9.27-11,15.46-18.4-5.41-3.46-8.11-5.22-13.52-8.83q-1-26.18-1.92-52.34Q84.88,1029,89.11,966Z"/><path class="cls-1" d="M546.39,780.45q-.75-72.6-1.65-145.19c3.18-4.63,4.78-6.9,8-11.35L543.91,621q-2.16-14.28-4.58-28.54,23.05-.9,46.11-1.77,31.86.93,63.72,1.83c-2,13.74-3.71,27.5-5.4,41.27-2,6.17-3,9.33-5.07,15.8q-2.07,46.08-3.83,92.18-1.67,19.58-3.28,39.15,1.84,15.09,3.66,30.18c.71,7.79,1.07,11.7,1.79,19.52-3.59,6.9-5.38,10.36-9,17.31l10.73,4.61q-.87,101.52-1.88,203c.75,3.63,1.12,5.42,1.86,8.94.73,4.5,1.1,6.7,1.83,11-.49,8.68-.74,12.85-1.23,20.78q-21.6,7.2-43.16,14.52c-8.22,1.2-12.33,1.81-20.54,3q-22.48,3.69-45,7.51c5.09-18.46,9.78-37,14.26-55.62,4.74-6,7.12-9,11.86-15.07-4.65-3.86-7-5.82-11.62-9.83.09-10,.14-15.08.23-25.51q.64-72.83,1.21-145.66c1.25-10.14,1.88-15.22,3.13-25.36q1.65-22.25,3.3-44.5C550.41,792.06,549.07,788.18,546.39,780.45Z"/><path class="cls-1" d="M912.07,892.65q-16.65-13.7-33.15-27.56l-19.59-5.29q-37.73-23.88-75.13-48.25-23.4-16.31-46.77-32.65-.28-23.37-.56-46.73c15.86-17.24,31.93-34.27,48.55-50.78q24.8-19.93,50.43-38.69c-.75-2.63-1.13-3.92-1.89-6.49,8.5-6.84,17-13.52,25.74-20.1,7.88-2.9,11.82-4.32,19.71-7.09,2-2.09-1.91-4.6-.91-6.12,7.67-6.59,15.65-13,23.8-18.95l29.41,1.3q29,10.5,57.59,21.88c-9.06,7-17.93,14.09-26.74,21.39q-12.94,7.43-25.67,15.26c-3.58,4.3-5.37,6.49-8.95,11q-28.76,21.64-56.37,44.67c-4,3.92-5.94,5.9-9.91,9.9l-2,4.9c-10,9.74-19.88,19.62-29.71,29.55,7.4,6.3,11.1,9.46,18.5,15.8,7.39,7.51,11.09,11.28,18.48,18.82l15.65,6.54q45.31,29.52,90.84,58.76,13.2,6.51,26.43,13,.75,27.58,1.51,55.19-17.76,21.45-35.77,42.66Q939,978.16,912,1001.28q-19.63,18.09-39.7,35.68c-4,4.34-7,9-10,12.54.41-.89.61-1.34,1-2.24-4.41,7.36-6.61,10.92-11,17.78q-13.3,9.62-26.77,19-40.27-6.24-80.2-14.21c6-8.78,9-13.34,15-22.73,7.51-4.93,11.26-7.41,18.77-12.41,8.86-8.86,17.37-17.86,25.8-27.13,6-7,10.93-13.4,16.89-20.62q13.8-5.74,27.6-11.43c-.76-2.85-1.13-4.29-1.89-7.19Q880.2,930.81,912.07,892.65Z"/><path class="cls-1" d="M1337.65,589.09c2.3,6.93,3.46,10.67,5.76,18.6-1.23,8.89-1.84,13.64-3.07,23.63l-44.17.29-9.81-1.53-29.43-.85-30.43.24c-2.42,9-3.63,13.69-6.06,23.45,1.54,5.08,2.31,7.67,3.84,12.93q-1.18,23.32-2.26,46.65c0,5.9.41,23,.82,26.66a156.09,156.09,0,0,1,.89,16.35c0,4.66,0,7-.07,11.71q.35,26.87.68,53.73-4.54,21.07-9.11,42.15l-1,.73c4.7,5.07,7,7.59,11.75,12.61q-.35,58.77-.75,117.55c2.33,11.69,4.83,23.35,7.62,34.93q-14.34,4.45-28.71,8.83c-11.06,1.58-16.6,2.38-27.66,4q-26.15.16-52.28.43.21-19.05.38-38.11,7.9-18.51,15.09-37.33c-3.53-2.21-5.29-3.33-8.82-5.58q3-47,5.6-94,3-71.46,5.9-142.9-2.77-15.4-5.67-30.8,2-19.76,4.23-39.5c-2.28-9.59-3.42-14.23-5.69-23.11l-21.57-1.4c-2,1.1-3,1.66-4.94,2.78a118.86,118.86,0,0,1-15.71,1.83q-29.94.91-59.88,1.88c-4.69-2.64-7-3.94-11.71-6.53,1.05-13.6,2.13-27.19,3.41-40.77l95.1,2c7.44,1.38,11.16,2.07,18.6,3.48,5.88,0,14.86-3.22,22.59-3.13,13.53.17,27.45.4,41.18.36l45.12-1.35Q1292.54,589.54,1337.65,589.09Z"/><path class="cls-1" d="M1578.89,587.77c6.95,7.77,13.28,16,19.62,24.25,18.2,21.82,34.4,45.13,50.13,68.77,2,6.59,3,10,4.93,16.75l9.83,0q13.55,19.35,26.61,39c11.35,16.68,22.47,33.51,33.56,50.36q-1.44,18.88-2.87,37.77c-15.88,22.21-31.87,44.33-48.17,66.24-3.15,2.59-4.73,3.89-7.88,6.46-.39,4.16-.58,6.23-1,10.33q-11.15,15.06-22.66,29.83c-16.74,24-34.15,47.35-53.31,69.52-4.74,6-7.12,8.91-11.87,14.38-.79,1.87-1.19,2.8-2,4.6q-45,0-90,.49c-.38-5.44-.57-8.33-.95-14.4-12.13-14.26-23.47-29-34.46-44.13,1.2-3.85,1.79-5.81,3-9.78l-10.86.21c-10.12-12.11-19.9-24.52-29.49-37.05q-18.06-27.28-35.31-55-11.85-17.13-23.52-34.37l-1.8-43.52,7.89-3.6c17.39-29.57,35-59,53.42-87.94,7.08-3.35,10.63-5,17.71-8.29-2-2.72-2.93-4.07-4.89-6.76,16.61-25.58,33.92-50.43,53.23-74,1.58-1.13,2.36-1.69,3.94-2.79,2.37-5.53,3.55-8.17,5.92-13.18.79-1.17,1.18-1.74,2-2.88h36.28l8.83-.41Zm-38.59,381.3c11.21-20.86,21.53-42.16,31.63-63.57,4.73-3.09,7.1-4.65,11.83-7.77h-1c-.4-4.67-.59-7-1-11.77,16.36-26.9,32.33-54,48.27-81.17l-7.89-17.15c-4.73-9.32-7.1-14-11.82-23.19-12.54-22.28-25.25-44.43-38.37-66.38,3.54-3,5.31-4.53,8.85-7.51-7.07-2.74-10.61-4.09-17.69-6.78-7.35-12-14.78-24-22.57-35.81-2.35-4.25-3.52-6.34-5.88-10.43-19.35,28.51-37,58-54.18,87.87l-13.77,2.73c2.74,4.19,4.12,6.3,6.86,10.54q-16.5,29.25-32.6,58.71c.38,3.3.57,4.94,1,8.24,5.1,9,7.65,13.53,12.75,22.53,3.53,7.91,5.29,11.86,8.83,19.71l-9.88,8.29,19.7,9.2q9.78,13.56,19.67,27c13.87,23.86,28,47.54,43.32,70.52C1537.93,965.39,1538.72,966.62,1540.3,969.07Z"/><path class="cls-1" d="M1898.06,848.5q.66,36.62,1.36,73.22,1.57,30.27,3.31,60.53c1.2,2.07,1.8,3.09,3,5.12q.6,20.67,1.28,41.34-19.73,2.49-39.46,4.87-32.62-2.77-65.26-5.26c2.28-27.58,3.92-55.22,5.54-82.85,5.88-9.28,8.82-14.06,14.69-23.81-3.56-3.41-5.34-5.13-8.91-8.57,0-10.05-.06-15.18-.1-25.56q-2.16-40-4.24-80-1-17.92-2.1-35.86l7.82-13.52c-1.66-39.82-3.33-79.64-5.4-119.44-1.28-14.16-2.59-28.31-4.14-42.45q38.64-6.85,77.38-13.19c54,19.14,105.81,42.69,156.56,69.21,2.4,5.88,3.6,8.89,6,15,1,.62,16.67-2.15,17.65-2.13q23.88,14,47.36,28.64-3.36,20-6.55,39.94-22.57,18.59-44.92,37.43-15.66,12.83-31.29,25.67L2011,811.08q-13.66,12.88-27.39,25.74c7.77,10.76,16.94,20.36,24.8,31,0,4.72,0,7.07.08,11.76,7.92,6.56,13.85,10.28,20.79,17.43Q2049,920.91,2069,944.41c0,3.35,0,5,.07,8.3L2075,955c5.58,7.69,8.37,11.47,13.94,18.91v-.61q8.79,12,17.94,23.77,16.24,11.19,32.71,22.06c-.33,6.19-.49,9.18-.82,14.93q-39.73,7.53-79.65,14c-8.12-6.26-16.1-12.78-23.87-19.46-12.12-14.48-23.66-29.32-34.89-44.5.36-3.87.55-5.83.91-9.82L1989.43,970q-18.83-22.34-36.77-45.4c-3.59-6.12-5.38-9.21-9-15.43q-20.09-28-39.71-56.35Zm-.18-35.44,6.88-2.59q24.46-20.93,49-41.81,25.42-21.27,49.85-43.78c4.3-3.65,6.45-5.47,10.75-9.08-7.91-6.82-11.86-10.18-19.76-16.8l-6.9-3.35c-29.69-19.51-59.82-38.19-90.7-55.76q-.9,22.7-1.7,45.38c0,2.5,0,3.75,0,6.28-3.12,4.75-4.68,7.15-7.8,12,1.6,4.66,2.4,7,4,11.75.79,1.59,1.19,2.38,2,4,.8,2.91,1.21,4.37,2,7.31q2.18,30.39,4.24,60.79C1899,797.62,1898.62,802.78,1897.88,813.06Z"/><path class="cls-1" d="M2217,757.44c-1.27-43.16-2.54-86.32-4.16-129.47,3.09-4,4.64-5.89,7.74-9.69-3.55-1.1-5.32-1.65-8.86-2.73-2.09-10.52-3.13-15.46-5.21-24.55l46.08-1.26q31.89,1,63.78,2c-1.62,12.7-3.07,25.42-4.43,38.15-1.89,5.68-2.84,8.59-4.74,14.53q-1.12,43.06-2.09,86.12-1.34,18.25-2.61,36.52,2.1,14.43,4.18,28.88c.85,7.44,1.28,11.18,2.13,18.67-3.48,6-5.23,9.06-8.71,15.08l10.85,5.9q.84,95.54,1.81,191.05c.83,3.57,1.24,5.34,2.07,8.81.83,4.38,1.25,6.53,2.09,10.73-.3,8-.45,11.75-.74,19q-21.6.76-43.2,1.46c-8.27-1.16-12.4-1.73-20.68-2.85q-22.64-2.79-45.31-5.44c4.83-14.78,9.16-29.65,13.25-44.65,4.68-4.15,7-6.27,11.69-10.6-4.76-4.51-7.15-6.79-11.91-11.39-.09-8.83-.13-13.38-.22-22.68q-.62-65.47-1.14-130.94c1.1-9,1.65-13.5,2.76-22.51q1.29-19.94,2.61-39.88C2221.22,768.34,2219.81,764.69,2217,757.44Z"/><path class="cls-1" d="M2453,818.79c-.06-7.08-.09-10.62-.16-17.66.76-2.4,1.15-3.6,1.91-6q-2.42-62.25-5.1-124.5c0-1.58,0-2.37,0-4-2.4-4.78-3.6-7.14-6-11.78q.78-14.89,1.63-29.78-1.61-17-3.37-33.9l50-.33q32.86.61,65.72,1.26c10.23,2.12,15.34,3.2,25.57,5.42,4.28-2.56,6.42-3.82,10.71-6.32l104.92-.14q.16,14.91.31,29.81-4.46,14.4-8.55,28.9l-38.22-.4q-28.93-4.11-57.9-8l-34.3.47-13.71,1.58-6.86-.16c-1.08,9.07-1.62,13.75-2.7,23.35q-.82,16.92-1.63,33.83l-11.72,4.5c5.93,4.54,8.89,6.84,14.81,11.5q1.46,47.34,2.8,94.69,28.41,1.34,56.81,2.74l13.71,1.08q31.32.88,62.64,1.85,3.08,17.46,6.13,34.94c-1.11,8.11-1.67,12.17-2.78,20.26-3,10.53-4.57,15.79-7.62,26.21q-16.64-1.78-33.27-3.53c-6.28-2.91-9.42-4.36-15.7-7.24l-4.88,1.91q-38.19-4.63-76.41-9c.06,6,.08,9,.13,14.89q1.61,16.46,3.22,32.9-.2,31.29-.41,62.57,1.58,15.63,3.24,31.25,2,14.17,4.2,28.34c-.7,7.82-1,11.63-1.75,19,2,3.68,3,5.5,5,9.08.13,11.5.2,16.95.33,27.1q-19.58-2.74-39.16-5.37-34.8-7.29-69.67-14.19c1.54-22.61,2.86-45.24,4.1-67.87q6.93-13.49,13.44-27.19c-5.15-5.58-7.72-8.38-12.87-14q1.16-37.27,2.24-74.55Q2452.42,860.56,2453,818.79Z"/><path class="cls-1" d="M2866.76,1167q.9-18,1.7-36,3.39-16.63,6.59-33.31c4.63-6.16,6.94-9.33,11.57-15.79-3.91-4.7-5.87-7.06-9.78-11.79q-2.34-53.25-4.44-106.52l1.77-36.88-10-43.06q-10.3-27.58-20.78-55.08c-12.54-28.77-25.33-57.41-38.61-85.85,0,.33,0,.49,0,.81Q2798,729.6,2791,715.76q-8.22-17.91-16.88-35.63c2.28-9.31,3.42-13.88,5.7-22.8-7.46-2.49-11.19-3.72-18.65-6.15q-11.09-14.1-22.77-27.69c.71-8.09,1.06-12,1.77-19.57l53.84-9.54,32.32-4.49c7,11,13.57,22.26,19.86,33.68,0,4.49.05,6.77.08,11.4,3.18,6.62,4.76,10,7.94,16.94,7.37,19,14.19,38.19,20.88,57.42q9.55,16.26,18.74,32.71,4,15.38,8,30.78l-2.9,6.58c4.33,5.81,6.49,8.74,10.81,14.64q5.47,16.2,10.87,32.41l3.89-4q8.61-26.68,17.36-53.33c4.76-16.24,9.55-32.48,14.48-48.68q7.2-13,14.57-26,8-25.83,16.46-51.51c4.67-8.36,7-12.46,11.69-20.47q4.23-16.32,8.72-32.54,22.09,4.23,44.14,8.69c8.23,1.94,12.35,2.92,20.59,4.92q15.27,7.82,30.38,15.93c-9.5,17.89-18.52,36-27.38,54.24-9,2.82-13.5,4.23-22.49,7,4.31,3.1,6.46,4.66,10.77,7.82-2.74,4.44-4.1,6.68-6.83,11.17q-7.38,12.56-14.63,25.18-7.38,18.47-14.58,37-19.15,49.25-37.81,98.67-13.93,35-28,69.88c.42,10.48.63,15.71,1,26.12-1.15,3.75-1.73,5.63-2.88,9.36.42,10.36.63,15.51,1.05,25.74-4.24,9.85-6.36,14.71-10.6,24.29l11.69,10.54q-1.78,29.49-3.67,59c1.57,5.73,2.36,8.58,3.93,14.22q-.42,16.26-.85,32.53c2.22,15.64,4.5,31.28,7,46.88q-14,3.26-28,6.08Q2903.67,1175.87,2866.76,1167Z"/><path class="cls-2" d="M1814.46,217.14c-12.31-23.78-3.18-62.24,54.06-91.88,17-8.81,35.2-16,51-23.23,18.61-23,17.56-37.88,13.78-46.94-9.4-22.46-29.76-19.53-36.2-14.77,10.35,3.43,12.22,10.76,8.88,18.91-3.86,9.39-15.08,17.62-28.62,12.07-8-3.27-13.81-11.2-11.71-22.79,2.41-13.32,11.67-22.9,23.39-27.8,21.18-8.86,50.4-2.43,61.79,24.8,7.86,18.81.15,41.05-14.51,60,43-12.2,90.57-15,131.48-1.46,55.27,18.23,100.71,72,87.11,133,26.76,160.29,172.43,132,177.12,40.72,2.81-54.88-37.91-86.1-72.33-77.68-57.28,14-45.53,96.58-5.2,85.43,29-7.88,18.81-43.65-1.84-30.3-12.17,7.9-14.51-13.25-.6-22.45,24.63-16.22,55.85,16.26,41,47-9.64,20.69-37.86,32-59,21.69-47.63-21.68-31.39-101.09,22.48-114.26C2354,163.4,2384.1,338,2279.58,363.53c-67.07,16.41-114.22-30.64-134.1-100.43-13.78,26.62-38.69,46.73-69.16,36.68-29-9.55-42.67-33.44-34.09-59.45,6.49-19.65,23.54-32.17,46.54-22.73,9.13,3.74,16.75,11.83,15,23.52-1.32,8.83-8.74,19.22-18.71,14.39-5.81-2.82-5.43-7.26-6.31-12.76-1.36-8.51-13.47-13.27-19,3.37-6.3,19.12,7.4,31.2,22.34,36.12,24.22,8,44.19-15.47,52.49-40.64,15.82-48-14.25-92.07-55.81-113,9.4,8.92,16.86,18.7,20,33.8,3.63,17.55-2.83,35.47-18.79,44.51-11.05,6.25-32.49,3.37-28.78-13.86,1.21-5.61,7.05-10.84,12.92-10.65,6.58.21,9.3,8.45,13.57,9.63,18.64-13.67,11.85-32.41.87-49.15,2,9.29-.29,18.82-9.46,26.13-10.42,8.29-30.36,9.63-36.08-5a15.12,15.12,0,0,1,20.32-19.51c3,1.28,6,4.33,5.44,7.93-.48,3.39-1.6,5.93-3.44,7.67a14.69,14.69,0,0,0,9.72-5c4.38-5.71,4.12-14.06,1.39-20.32a36.48,36.48,0,0,0-13.6-15.76c-35.47-9.26-96.53-9.72-160.18,23.25-40.92,21.19-50.35,45.61-51.89,50.46-.61,1.91-5.88,19.74,13.82,22.48-6.21-9.52-3.73-28.2,13.56-28.85,32.44-1.23,27.45,44.32,1.53,53.46C1849.85,246.82,1824.78,237.07,1814.46,217.14Z"/><path class="cls-1" d="M1876.68,174.28c15.46-10.37,32.46-19.41,51.74-23.15,18.61-4,42.36-1.63,58,15.32a47.12,47.12,0,0,1,12.5,31.18c-.06,12.59-5.64,23.78-15.38,31.88-9.94,8.2-25.23,10.74-37.83,3.75a31,31,0,0,1-13.64-16.08c-2.32-6.4-3.75-15.49,3-24.25a11.17,11.17,0,0,1,15.72-1.36c10.45,8.79-4.55,16.9,5.78,22.81a13.93,13.93,0,0,0,14.48-1.17c10.66-7.25,12.17-23.86,2.78-36-9.13-11.91-26.73-16.62-44.09-15.36C1912.17,163,1894.31,168.1,1876.68,174.28Z"/><path class="cls-1" d="M1912.06,147.37c15.44-7.48,32.43-13,50.71-13.54a80.28,80.28,0,0,1,27.8,3.8c9.23,3.05,18.64,8.2,25.8,17.82l.42.57a11.3,11.3,0,1,1-19.56,10.91c-2-5-7-10.3-13.44-14a66.38,66.38,0,0,0-21.85-8C1946,141.91,1928.75,143.35,1912.06,147.37Z"/><path class="cls-2" d="M1246.9,217.14c12.31-23.78,3.18-62.24-54.06-91.88-17-8.81-35.2-16-51-23.23-18.61-23-17.56-37.88-13.78-46.94,9.4-22.46,29.76-19.53,36.2-14.77-10.35,3.43-12.22,10.76-8.88,18.91,3.86,9.39,15.08,17.62,28.62,12.07,8-3.27,13.81-11.2,11.71-22.79-2.41-13.32-11.67-22.9-23.39-27.8-21.18-8.86-50.4-2.43-61.79,24.8-7.86,18.81-.15,41.05,14.51,60-43-12.2-90.57-15-131.48-1.46-55.27,18.23-100.72,72-87.11,133-26.76,160.29-172.43,132-177.12,40.72-2.81-54.88,37.91-86.1,72.33-77.68,57.28,14,45.53,96.58,5.2,85.43-29-7.88-18.81-43.65,1.84-30.3,12.17,7.9,14.51-13.25.6-22.45-24.63-16.22-55.85,16.26-41.05,47,9.64,20.69,37.86,32,59,21.69,47.64-21.68,31.4-101.09-22.47-114.26C707.41,163.4,677.26,338,781.78,363.53,848.85,379.94,896,332.89,915.88,263.1c13.78,26.62,38.69,46.73,69.16,36.68,29-9.55,42.66-33.44,34.09-59.45-6.49-19.65-23.54-32.17-46.54-22.73-9.13,3.74-16.75,11.83-15,23.52,1.33,8.83,8.75,19.22,18.72,14.39,5.81-2.82,5.43-7.26,6.31-12.76,1.36-8.51,13.47-13.27,19,3.37,6.3,19.12-7.4,31.2-22.34,36.12-24.22,8-44.19-15.47-52.49-40.64-15.82-48,14.25-92.07,55.81-113-9.39,8.92-16.86,18.7-20,33.8-3.63,17.55,2.83,35.47,18.79,44.51,11,6.25,32.49,3.37,28.78-13.86-1.21-5.61-7-10.84-12.92-10.65-6.58.21-9.3,8.45-13.57,9.63-18.64-13.67-11.85-32.41-.87-49.15-2,9.29.29,18.82,9.46,26.13,10.42,8.29,30.36,9.63,36.08-5A15.12,15.12,0,0,0,1008,144.56c-3,1.28-6,4.33-5.45,7.93.5,3.39,1.61,5.93,3.45,7.67a14.69,14.69,0,0,1-9.72-5c-4.38-5.71-4.12-14.06-1.39-20.32a36.48,36.48,0,0,1,13.6-15.76c35.47-9.26,96.53-9.72,160.18,23.25,40.92,21.19,50.35,45.61,51.89,50.46.61,1.91,5.88,19.74-13.82,22.48,6.21-9.52,3.73-28.2-13.56-28.85-32.44-1.23-27.45,44.32-1.53,53.46C1211.51,246.82,1236.58,237.07,1246.9,217.14Z"/><path class="cls-1" d="M1184.68,174.28c-15.46-10.37-32.46-19.41-51.74-23.15-18.61-4-42.36-1.63-58,15.32a47.07,47.07,0,0,0-12.5,31.18c.06,12.59,5.64,23.78,15.38,31.88,9.94,8.2,25.23,10.74,37.83,3.75a31,31,0,0,0,13.64-16.08c2.32-6.4,3.75-15.49-3-24.25a11.17,11.17,0,0,0-15.72-1.36c-10.45,8.79,4.55,16.9-5.78,22.81a13.93,13.93,0,0,1-14.48-1.17c-10.66-7.25-12.17-23.86-2.78-36,9.13-11.91,26.74-16.62,44.09-15.36C1149.19,163,1167.05,168.1,1184.68,174.28Z"/><path class="cls-1" d="M1149.3,147.37c-15.44-7.48-32.43-13-50.7-13.54a80.3,80.3,0,0,0-27.81,3.8c-9.23,3.05-18.64,8.2-25.8,17.82l-.42.57a11.3,11.3,0,1,0,19.56,10.91c2-5,7-10.3,13.44-14a66.38,66.38,0,0,1,21.85-8C1115.36,141.91,1132.61,143.35,1149.3,147.37Z"/><path class="cls-3" d="M3037.81,487.46H2204l-4.64-6.78c-68.27-99.81-349.5-172.25-668.71-172.25S930.23,380.87,862,480.68l-4.64,6.78H23.55a15.57,15.57,0,1,1,0-31.14H841.21c81.78-105.76,362.39-179,689.48-179s607.68,73.27,689.47,179h817.65a15.57,15.57,0,1,1,0,31.14Z"/><path class="cls-2" d="M819.27,417.4H23.55a11.68,11.68,0,1,1,0-23.35H819.27a11.68,11.68,0,0,1,0,23.35Z"/><path class="cls-2" d="M3037.81,417.4H2242.09a11.68,11.68,0,0,1,0-23.35h795.72a11.68,11.68,0,1,1,0,23.35Z"/><path class="cls-2" d="M1682.47,230.72a7.87,7.87,0,0,1-1.85-.23c-.58-.14-58.67-14.18-150-15.59-91.16,1.41-149.25,15.45-149.83,15.59a7.78,7.78,0,0,1-3.72-15.11c2.42-.61,60.23-14.61,153.55-16,93.55,1.43,151.35,15.43,153.77,16a7.78,7.78,0,0,1-1.87,15.34Z"/><path class="cls-2" d="M1713.88,78a13.5,13.5,0,0,0-13.5,13.5,13.3,13.3,0,0,0,5,10.25c-11.66,13.41-36.38,33-80.48,30.35-50.85-3-80.09-75.23-91-105.73a13.29,13.29,0,0,0,10.26-12.84,13.49,13.49,0,0,0-27,0,13.29,13.29,0,0,0,10.26,12.84c-10.9,30.5-40.14,102.71-91,105.73-44.11,2.61-68.83-16.94-80.5-30.35a13.28,13.28,0,0,0,5-10.25,13.5,13.5,0,1,0-13.5,13.49,13,13,0,0,0,4-.82l27.36,97.27s58.28-14.37,151.79-15.8c93.51,1.43,151.79,15.8,151.79,15.8l27.36-97.27a13,13,0,0,0,4.05.82,13.5,13.5,0,0,0,0-27Z"/><text class="cls-4" transform="translate(1172.88 508.48)">EST. 2022</text><path class="cls-2" d="M1118.1,479c-4.21-17.17-22.69-36.08-52.76-28.44-25.66,6.51-30.74,17.52-43.51,21-12.37,3.5-25.82,2.71-34.2-4.55-8.61-7.39-10-19.64-3.34-26.47a10.24,10.24,0,0,1,10.3-3c8.36,2.73-1.29,10.84,7.58,15.64a8.25,8.25,0,0,0,11.18-3.32c3.57-7.34,1.18-13.71-1.45-18a22.92,22.92,0,0,0-12.27-9.62,25.28,25.28,0,0,0-26.83,8.35A30.38,30.38,0,0,0,966.41,456a34.84,34.84,0,0,0,13.69,20.72c11.16,8,24.68,8.33,36.25,5.21-1.72,1-3.4,2.09-5.19,2.92a49,49,0,0,1-16.56,4.6c-5.44.54-10.76-.48-14.09-2.63a8.35,8.35,0,1,0-7.08,15l.51.16c8.44,2.7,16.31,1.75,23.17-.38a59.31,59.31,0,0,0,18.34-9.68,75.08,75.08,0,0,0,8.68-8,54.2,54.2,0,0,1-5.37,9.25,37.14,37.14,0,0,1-9.31,9.21c-3.42,2.38-7.34,3.68-10.36,3.49a6.36,6.36,0,1,0,.85,12.59l.4-.08a28.74,28.74,0,0,0,15.28-8.86l0,0c9.66-9.79,12.56-24,22.65-33.72,18.28-17.54,44.45-22,58.57-13.49,12.24,7.42,12.2,22.72,4.42,27.46-2.21,1.35-8.6,4.34-10.88-1.94.55-5.52-7-11.63-17.14-4.05-14,10.47,5.75,34.28,24.36,28.12S1121.3,492.08,1118.1,479Z"/><path class="cls-2" d="M1943.26,479C1947.47,461.87,1966,443,1996,450.6c25.66,6.51,30.75,17.52,43.51,21,12.37,3.5,25.82,2.71,34.2-4.55,8.6-7.39,10-19.64,3.34-26.47a10.25,10.25,0,0,0-10.3-3c-8.36,2.73,1.29,10.84-7.58,15.64a8.25,8.25,0,0,1-11.18-3.32c-3.57-7.34-1.18-13.71,1.45-18a23,23,0,0,1,12.27-9.62,25.28,25.28,0,0,1,26.83,8.35,30.34,30.34,0,0,1,6.38,25.36,34.78,34.78,0,0,1-13.68,20.72c-11.16,8-24.68,8.33-36.25,5.21,1.72,1,3.4,2.09,5.19,2.92a49,49,0,0,0,16.56,4.6c5.44.54,10.76-.48,14.09-2.63a8.35,8.35,0,1,1,7.08,15l-.51.16c-8.44,2.7-16.31,1.75-23.17-.38a59.31,59.31,0,0,1-18.34-9.68,75.08,75.08,0,0,1-8.68-8,54.2,54.2,0,0,0,5.37,9.25,37.14,37.14,0,0,0,9.31,9.21c3.42,2.38,7.34,3.68,10.36,3.49a6.36,6.36,0,1,1-.85,12.59l-.4-.08a28.74,28.74,0,0,1-15.28-8.86l0,0c-9.66-9.79-12.56-24-22.65-33.72-18.28-17.54-44.45-22-58.57-13.49-12.24,7.42-12.2,22.72-4.43,27.46,2.22,1.35,8.61,4.34,10.89-1.94-.55-5.52,7-11.63,17.14-4.05,14,10.47-5.75,34.28-24.36,28.12S1940.06,492.08,1943.26,479Z"/><path class="cls-3" d="M3045.78,1383.25a15.48,15.48,0,0,1-7.18-1.76c-257.23-134.09-849.11-220.74-1507.91-220.74S280,1247.4,22.76,1381.49a15.57,15.57,0,1,1-14.38-27.61c261.31-136.24,858.87-224.27,1522.31-224.27s1261,88,1522.29,224.27a15.56,15.56,0,0,1-7.2,29.37Z"/><path class="cls-2" d="M2591.68,1324.68a15.84,15.84,0,0,1-2.89-.26c-295.22-55.35-671-85.83-1058.1-85.83s-762.9,30.48-1058.12,85.83a15.57,15.57,0,0,1-5.74-30.6c297.07-55.7,674.88-86.37,1063.86-86.37s766.77,30.67,1063.84,86.37a15.56,15.56,0,0,1-2.85,30.86Z"/><text class="cls-5" transform="translate(817.67 1430.69)">T<tspan class="cls-6" x="72.1" y="0">H</tspan><tspan x="148.41" y="0">E HI</tspan><tspan class="cls-7" x="376.63" y="0">S</tspan><tspan class="cls-8" x="445.37" y="0">T</tspan><tspan x="513.68" y="0">ORIAL ARCHIVES</tspan></text><path class="cls-2" d="M578.35,1410.34c14.13,3.63,31,5.83,45,1.61,11.85-3.66,22.92-11,35.34-13.06,12.68-2,27.09-.62,30.6,16.42,1.54,7.68-1,11.87-6,13.65,4.79-29.06-39.94-11-17.86,13.87,12.58,14.13,30.8,5.72,36.65-9.59a40.61,40.61,0,0,0,2.26-10.12,36.92,36.92,0,0,0,8.08,6.31c14.36,8.1,33.69,2.79,34.23-16.15,1-33.22-45-18.34-22.62.9-4.94,1.83-9.62.24-13.32-6.62-3.89-7.23-3.77-13.35-1.28-18.47-2.4-5.11-2.64-11.3,1.36-18.51,3.68-6.86,8.35-8.44,13.29-6.58-22.33,19.25,23.48,34.08,22.57.91-.49-19-19.82-24.21-34.24-16.26a37.94,37.94,0,0,0-8.13,6.31,35.75,35.75,0,0,0-2.25-10c-5.84-15.39-24-23.81-36.51-9.57-22.11,24.76,22.56,42.94,17.89,13.81,4.89,1.7,7.47,6,5.84,13.68-3.51,17.09-17.88,18.34-30.5,16.32s-23.47-9.31-35.41-13.08c-28-8.55-67.75,9.11-72.91,11.61l-.1,0c-7.22,3.63-14.19,7.53-20.9,11.45,6.74,3.88,13.64,7.71,20.92,11.35A167.14,167.14,0,0,0,578.35,1410.34Zm21.55-28.62a47.9,47.9,0,0,1,24.52,7.35,47.22,47.22,0,0,1-24.47,7.3c-12,.17-23.67-2.56-35.38-7.26C576.35,1384.36,588,1381.53,599.9,1381.72Z"/><path class="cls-2" d="M770.08,1406.8a17.75,17.75,0,1,1,17.75-17.75A17.75,17.75,0,0,1,770.08,1406.8Z"/><path class="cls-2" d="M2483,1410.34c-14.13,3.63-31,5.83-45,1.61-11.85-3.66-22.92-11-35.34-13.06-12.69-2-27.09-.62-30.59,16.42-1.55,7.68,1,11.87,6,13.65-4.79-29.06,39.94-11,17.85,13.87-12.57,14.13-30.79,5.72-36.64-9.59a41.06,41.06,0,0,1-2.26-10.12,36.92,36.92,0,0,1-8.08,6.31c-14.36,8.1-33.69,2.79-34.23-16.15-1-33.22,45-18.34,22.62.9,4.94,1.83,9.62.24,13.32-6.62,3.89-7.23,3.77-13.35,1.28-18.47,2.4-5.11,2.64-11.3-1.36-18.51-3.68-6.86-8.35-8.44-13.29-6.58,22.33,19.25-23.48,34.08-22.57.91.49-19,19.82-24.21,34.23-16.26a37.75,37.75,0,0,1,8.14,6.31,35.75,35.75,0,0,1,2.25-10c5.84-15.39,24-23.81,36.51-9.57,22.11,24.76-22.56,42.94-17.89,13.81-4.89,1.7-7.47,6-5.84,13.68,3.51,17.09,17.88,18.34,30.5,16.32s23.47-9.31,35.41-13.08c28-8.55,67.75,9.11,72.91,11.61l.1,0c7.22,3.63,14.19,7.53,20.9,11.45-6.74,3.88-13.64,7.71-20.91,11.35A167.76,167.76,0,0,1,2483,1410.34Zm-21.56-28.62a47.89,47.89,0,0,0-24.51,7.35,47.22,47.22,0,0,0,24.47,7.3c12,.17,23.67-2.56,35.38-7.26C2485,1384.36,2473.35,1381.53,2461.45,1381.72Z"/><path class="cls-2" d="M2291.28,1406.8a17.75,17.75,0,1,0-17.75-17.75A17.74,17.74,0,0,0,2291.28,1406.8Z"/></g></g></svg>